<svg xmlns="http://www.w3.org/2000/svg" width="19.975" height="19.985" viewBox="0 0 19.975 19.985">
  <path id="path" d="M6.132,9.166V4.4A1.867,1.867,0,0,1,7.948,2.5H20.659a1.867,1.867,0,0,1,1.816,1.9v9.047a1.867,1.867,0,0,1-1.816,1.9h-.908V18.69a.9.9,0,0,1-1.543.667l-1.09-1.143H10.581l-3.813,4a.9.9,0,0,1-1.543-.667V18.214H4.316a1.867,1.867,0,0,1-1.816-1.9V8.214a1.867,1.867,0,0,1,1.816-1.9H6.132Zm11.8,5.238a.879.879,0,0,1,.908-.952h1.816V4.4H7.948v9.047h6.809a.807.807,0,0,1,.636.286L17.935,16.4v-2Zm-11.8-6.19H4.316v8.095H6.132a.879.879,0,0,1,.908.952v2l2.542-2.667a.807.807,0,0,1,.636-.286H15.3l-.908-.952H7.948a1.867,1.867,0,0,1-1.816-1.9V8.214Z" transform="translate(-2.5 -2.5)" fill="#727c8e"/>
</svg>
