<svg xmlns="http://www.w3.org/2000/svg" width="22" height="21" viewBox="0 0 22 21">
  <path id="path" d="M4.5,11.473l1.2,9.545c0,.286.4.573.7.573H20.644c.3,0,.7-.286.7-.573l1.2-9.545a.358.358,0,0,0-.4-.382H4.906c-.3,0-.4.1-.4.382Zm-2,.191A2.225,2.225,0,0,1,4.806,9.182H22.147a2.225,2.225,0,0,1,2.306,2.482l-1.2,9.545A2.753,2.753,0,0,1,20.544,23.5H6.409A2.744,2.744,0,0,1,3.7,21.209L2.5,11.664ZM6.51,7.75a.956.956,0,1,1,0-1.909H20.544a.956.956,0,1,1,0,1.909ZM9.016,4.409a.925.925,0,0,1-1-.955.925.925,0,0,1,1-.955h9.022a.925.925,0,0,1,1,.955.925.925,0,0,1-1,.955Z" transform="translate(-2.476 -2.5)" fill="#727c8e"/>
</svg>
