<svg xmlns="http://www.w3.org/2000/svg" width="14.013" height="14" viewBox="0 0 14.013 14">
  <g id="filter" transform="translate(0.255 -6.843)">
    <g id="그룹_138" data-name="그룹 138" transform="translate(0.001 7.093)">
      <path id="패스_77" data-name="패스 77" d="M13.443,7.361A.512.512,0,0,0,13,7.093H.506a.5.5,0,0,0-.436.26.522.522,0,0,0,0,.519l4.251,7.581v4.621a.513.513,0,0,0,.5.519H8.178a.513.513,0,0,0,.5-.519v-4.6l4.737-7.589A.538.538,0,0,0,13.443,7.361ZM7.759,15.046a.566.566,0,0,0-.084.286v4.223H5.327v-4.24a.542.542,0,0,0-.067-.26L1.378,8.131h10.7Z" transform="translate(-0.001 -7.093)" fill="#727c8e" stroke="#727c8e" stroke-width="0.5"/>
    </g>
  </g>
</svg>
